<?xml version="1.0" standalone="no"?><!DOCTYPE svg PUBLIC "-//W3C//DTD SVG 1.1//EN" "http://www.w3.org/Graphics/SVG/1.1/DTD/svg11.dtd"><svg class="icon" width="200px" height="200.00px" viewBox="0 0 1024 1024" version="1.1" xmlns="http://www.w3.org/2000/svg"><path fill="#333333" d="M888.704 425.536c0-24.32-19.712-44.032-44.032-44.032h-132.064V304.32c0-115.424-88.704-208.96-198.112-208.96S316.384 188.928 316.384 304.32v77.184H184.32c-24.32 0-44.032 19.712-44.032 44.032L74.24 975.84c0 24.32 19.712 44.032 44.032 44.032H910.72c24.32 0 44.032-19.712 44.032-44.032l-66.048-550.304z m-220.128-44h-308.16V304.352c0-90.944 69.12-164.96 154.08-164.96s154.08 73.984 154.08 164.96v77.184z"  /></svg>