<?xml version="1.0" standalone="no"?><!DOCTYPE svg PUBLIC "-//W3C//DTD SVG 1.1//EN" "http://www.w3.org/Graphics/SVG/1.1/DTD/svg11.dtd"><svg t="1561704534468" class="icon" viewBox="0 0 1024 1024" version="1.1" xmlns="http://www.w3.org/2000/svg" p-id="3430" xmlns:xlink="http://www.w3.org/1999/xlink" width="200" height="200"><defs><style type="text/css"></style></defs><path d="M887.466667 270.933333L633.6 10.666667C627.2 4.266667 618.666667 0 610.133333 0H160C142.933333 0 128 14.933333 128 32v960c0 17.066667 14.933333 32 32 32h704c17.066667 0 32-14.933333 32-32V292.266667c0-8.533333-4.266667-14.933333-8.533333-21.333334zM640 108.8l142.933333 147.2H640V108.8zM192 960V64h384v224c0 17.066667 14.933333 32 32 32H832v640H192z" fill="#212121" p-id="3431"></path><path d="M302.933333 416c0 8.533333 6.4 17.066667 17.066667 17.066667s17.066667-6.4 17.066667-17.066667v-17.066667c36.266667-6.4 64-36.266667 64-70.4 0-38.4-36.266667-72.533333-81.066667-72.533333-27.733333 0-46.933333-17.066667-46.933333-40.533333 0-21.333333 21.333333-40.533333 46.933333-40.533334s46.933333 17.066667 46.933333 40.533334c0 8.533333 6.4 17.066667 17.066667 17.066666s17.066667-6.4 17.066667-17.066666c0-34.133333-27.733333-64-64-70.4V128c0-8.533333-6.4-17.066667-17.066667-17.066667s-17.066667 8.533333-17.066667 17.066667v17.066667c-36.266667 6.4-64 36.266667-64 70.4 0 40.533333 34.133333 72.533333 81.066667 72.533333 27.733333 0 46.933333 21.333333 46.933333 40.533333 0 21.333333-21.333333 40.533333-46.933333 40.533334s-46.933333-17.066667-46.933333-40.533334c0-8.533333-6.4-17.066667-17.066667-17.066666s-17.066667 6.4-17.066667 17.066666c0 34.133333 27.733333 64 64 70.4v17.066667zM704 576H317.866667c-17.066667 0-32 14.933333-32 32S298.666667 640 317.866667 640H704c17.066667 0 32-14.933333 32-32S721.066667 576 704 576zM704 384h-160c-17.066667 0-32 14.933333-32 32s14.933333 32 32 32H704c17.066667 0 32-14.933333 32-32S721.066667 384 704 384zM704 768H317.866667c-17.066667 0-32 14.933333-32 32S298.666667 832 317.866667 832H704c17.066667 0 32-14.933333 32-32S721.066667 768 704 768z" fill="#212121" p-id="3432"></path></svg>