<?xml version="1.0" standalone="no"?><!DOCTYPE svg PUBLIC "-//W3C//DTD SVG 1.1//EN" "http://www.w3.org/Graphics/SVG/1.1/DTD/svg11.dtd"><svg class="icon" width="200px" height="200.00px" viewBox="0 0 1024 1024" version="1.1" xmlns="http://www.w3.org/2000/svg"><path fill="#333333" d="M973.064453 273.152q22.857143 32.585143 10.276571 73.728l-157.147429 517.705143q-10.861714 36.571429-43.702857 61.44t-69.997714 24.868571l-527.433143 0q-43.995429 0-84.845714-30.573714t-56.868571-75.154286q-13.714286-38.290286-1.133714-72.557714 0-2.304 1.718857-15.433143t2.304-21.138286q0.585143-4.571429-1.718857-12.288t-1.718857-11.154286q1.133714-6.290286 4.571429-11.995429t9.435429-13.421714 9.435429-13.421714q13.129143-21.723429 25.709714-52.297143t17.152-52.297143q1.718857-5.705143 0.292571-17.152t-0.292571-16.018286q1.718857-6.290286 9.728-16.018286t9.728-13.129143q11.995429-20.553143 23.990857-52.553143t14.299429-51.419429q0.585143-5.156571-1.426286-18.285714t0.292571-16.018286q2.304-7.424 12.580571-17.444571t12.580571-12.873143q10.861714-14.848 24.283429-48.274286t15.725714-55.149714q0.585143-4.571429-1.718857-14.555429t-1.133714-15.140571q1.133714-4.571429 5.156571-10.276571t10.276571-13.129143 9.728-11.995429q4.571429-6.838857 9.435429-17.444571t8.557714-20.004571 9.142857-20.553143 11.154286-18.285714 15.140571-13.421714 20.553143-6.582857 27.136 3.145143l-0.585143 1.718857q21.723429-5.156571 29.147429-5.156571l434.870857 0q42.276571 0 65.133714 32t10.276571 74.276571l-156.562286 517.705143q-20.553143 67.986286-40.850286 87.698286t-73.435429 19.712l-496.566857 0q-15.433143 0-21.723429 8.557714-6.290286 9.142857-0.585143 24.576 13.714286 40.009143 82.285714 40.009143l527.433143 0q16.566857 0 32-8.850286t20.004571-23.698286l171.446857-564.004571q3.986286-12.580571 2.852571-32.585143 21.723429 8.557714 33.718857 24.576zM365.064453 274.285714q-2.304 7.424 1.133714 12.873143t11.446857 5.412571l347.428571 0q7.424 0 14.555429-5.412571t9.435429-12.873143l11.995429-36.571429q2.304-7.424-1.133714-12.873143t-11.446857-5.412571l-347.428571 0q-7.424 0-14.555429 5.412571t-9.435429 12.873143zM317.667882 420.571429q-2.304 7.424 1.133714 12.873143t11.446857 5.412571l347.428571 0q7.424 0 14.555429-5.412571t9.435429-12.873143l11.995429-36.571429q2.304-7.424-1.133714-12.873143t-11.446857-5.412571l-347.428571 0q-7.424 0-14.555429 5.412571t-9.435429 12.873143z" /></svg>