<?xml version="1.0" standalone="no"?><!DOCTYPE svg PUBLIC "-//W3C//DTD SVG 1.1//EN" "http://www.w3.org/Graphics/SVG/1.1/DTD/svg11.dtd"><svg class="icon" width="200px" height="200.00px" viewBox="0 0 1024 1024" version="1.1" xmlns="http://www.w3.org/2000/svg"><path fill="#333333" d="M872.542037 748.156467h-190.981202a24.041597 24.041597 0 1 1 0-48.042236h190.981202a24.082553 24.082553 0 0 1 0 48.042236z m0-42.472122h-190.981202v0.081914a18.389569 18.389569 0 1 0 0 36.738181h190.981202a18.430526 18.430526 0 0 0 0-36.820095z m0-278.505719h-190.981202a21.133669 21.133669 0 0 1-15.031117-36.205744 21.051756 21.051756 0 0 1 15.031117-6.184465h190.981202a21.215583 21.215583 0 1 1 0 42.390209z m0 159.11687h-190.981202a21.174626 21.174626 0 0 1-15.031117-36.287657 21.215583 21.215583 0 0 1 15.031117-6.184465h190.981202a21.297496 21.297496 0 1 1 0 42.472122zM999.712663 1023.918087l-330.315975-0.245741a24.041597 24.041597 0 0 1 2.621231-47.87841h303.694104V331.790417a60.493081 60.493081 0 0 0-17.775218-43.00456 61.025518 61.025518 0 0 0-43.12743-17.857131h-315.284857v728.906807a24.041597 24.041597 0 0 1-24.00064 24.082554H24.00064A24.12351 24.12351 0 0 1 0 999.835533V108.944884A109.149668 109.149668 0 0 1 108.903928-0.040957h381.757619a109.026798 109.026798 0 0 1 108.903928 108.944885V222.804576h315.36677A109.108711 109.108711 0 0 1 1023.918087 331.790417v668.12703a24.287337 24.287337 0 0 1-24.205424 24.00064zM236.115511 657.560195h127.293496c36.738181 0 66.595632 29.857451 66.595633 66.513719v251.720022h121.518598V108.944884a60.738821 60.738821 0 0 0-60.861691-60.779777H108.903928c-33.62547 0-60.902648 27.195264-60.902648 60.738821v867.012879h121.641469v-251.842893c0-36.656267 29.857451-66.513719 66.472762-66.513719z m145.560195 66.595633a18.389569 18.389569 0 0 0-18.307655-18.389569H236.115511a18.389569 18.389569 0 0 0-18.389569 18.389569v251.638108h163.949764v-251.638108zM193.725302 424.393569h212.032957a24.082553 24.082553 0 0 1 0 48.042236H193.725302a24.041597 24.041597 0 0 1 0-48.042236z m0 42.390208h212.032957a18.430526 18.430526 0 0 0 0-36.738181H193.725302a18.389569 18.389569 0 1 0 0 36.738181z m212.032957-187.99136H193.725302a21.215583 21.215583 0 1 1 0-42.431166h212.032957V236.320294a21.215583 21.215583 0 1 1 0 42.472123z" /></svg>