<?xml version="1.0" standalone="no"?><!DOCTYPE svg PUBLIC "-//W3C//DTD SVG 1.1//EN" "http://www.w3.org/Graphics/SVG/1.1/DTD/svg11.dtd"><svg t="1562663132971" class="icon" viewBox="0 0 1024 1024" version="1.1" xmlns="http://www.w3.org/2000/svg" p-id="2399" xmlns:xlink="http://www.w3.org/1999/xlink" width="200" height="200"><defs><style type="text/css"></style></defs><path d="M968.63047686 435.89492052H55.36952314v532.6848192l568.09905031 0.02536916L968.63047686 968.57973972V435.89492052z m0-50.73672005V131.52533973C968.63047686 131.47460262 816.42031791 131.47460262 816.42031791 131.47460262V80.7378826h152.26089606A50.73672004 50.73672004 0 0 1 1019.36719688 131.52533973v837.05439999A50.68598293 50.68598293 0 0 1 968.70658192 1019.36719688H55.29341808A50.73672004 50.73672004 0 0 1 4.63280312 968.57973972V131.52533973C4.63280312 103.49330134 27.13453867 80.7378826 55.31878603 80.7378826H207.57968209v50.73672002l-152.21015895 0.05073711V385.15820047h913.26095372zM258.31640214 4.63280312h50.73671887v202.94687897h-50.73671887V4.63280312z m456.63047685 0h50.73671887v202.94687897h-50.73671887V4.63280312zM359.78984105 80.7378826h304.4203179v50.73672002H359.78984105V80.7378826z" fill="#3D3D3D" p-id="2400"></path></svg>