<?xml version="1.0" standalone="no"?><!DOCTYPE svg PUBLIC "-//W3C//DTD SVG 1.1//EN" "http://www.w3.org/Graphics/SVG/1.1/DTD/svg11.dtd"><svg t="1561704521117" class="icon" viewBox="0 0 1024 1024" version="1.1" xmlns="http://www.w3.org/2000/svg" p-id="2520" xmlns:xlink="http://www.w3.org/1999/xlink" width="200" height="200"><defs><style type="text/css"></style></defs><path d="M582.4 558.953813c-77.63968-66.39616-95.70304-55.268693-95.70304-55.268693-32.416427 18.06336-69.143893 29.187413-108.735147 29.187413-42.943147 0-82.664107-12.680533-116.872533-33.49504-139.008 65.314133-242.479787 243.43552-257.672533 459.721387l749.33248 2.874027c-11.369813-169.157973-92.716373-336.745813-170.349227-403.019094z m-204.322133 351.453867l-55.627094-57.780907 50.363734-264.485546-28.23168-39.35232c7.181653-9.925973 59.09504-10.88512 66.874026 0l-28.23168 39.35232 50.363734 264.485546-55.51104 57.780907zM261.085867 484.901547c34.208427 20.81792 73.929387 33.491627 116.872533 33.491626 39.59808 0 76.4416-11.12064 108.735147-29.067946 70.099627-38.754987 118.19008-112.919893 118.19008-199.051947 0-126.081707-101.56032-228.242773-226.92864-228.242773s-226.92864 102.161067-226.92864 228.242773c0.003413 82.78016 44.386987 154.671787 110.05952 194.628267z m644.3008 204.079786c-52.514133-44.86144-64.720213-37.44768-64.720214-37.44768-22.00576 12.20608-46.892373 19.739307-73.68704 19.739307-29.074773 0-55.985493-8.605013-79.192746-22.725973-94.139733 44.260693-164.246187 164.9664-174.53056 311.38816l507.33056 1.911466c-7.41376-114.36032-62.5664-227.887787-115.2-272.86528z m-138.407254 238.05952l-37.679786-39.120213 34.085546-179.080533-19.131733-26.671787c4.908373-6.700373 39.953067-7.420587 45.339307 0l-19.019094 26.671787 34.085547 179.080533-37.679787 39.120213z m-79.07328-288.180906c23.087787 14.114133 49.998507 22.725973 79.192747 22.725973 26.794667 0 51.68128-7.540053 73.693867-19.73248 47.486293-26.207573 80.018773-76.445013 80.018773-134.81984 0-85.41184-68.778667-154.555733-153.71264-154.555733-84.9408 0-153.719467 69.143893-153.719467 154.555733 0 56.098133 29.907627 104.792747 74.52672 131.826347z" p-id="2521"></path></svg>