<?xml version="1.0" standalone="no"?><!DOCTYPE svg PUBLIC "-//W3C//DTD SVG 1.1//EN" "http://www.w3.org/Graphics/SVG/1.1/DTD/svg11.dtd"><svg t="1561706621789" class="icon" viewBox="0 0 1024 1024" version="1.1" xmlns="http://www.w3.org/2000/svg" p-id="13220" xmlns:xlink="http://www.w3.org/1999/xlink" width="200" height="200"><defs><style type="text/css"></style></defs><path d="M204.56863 516.415566c2.496867-5.308913 1.841951-11.143805 2.654456-16.717753 12.984732-89.180112 56.474222-159.76982 129.427768-212.307384 21.833261-15.7231 45.675272-27.846208 71.036893-36.845163 3.89368-1.382487 3.821025-2.492774 1.797949-5.619998-37.609573-58.179051-75.114768-116.426663-112.641453-174.660972-1.109264-1.723248-2.200108-3.456728-3.76679-5.91471 1.985214 0 3.331885 0 4.677533 0 79.18241 0 158.364821 0.025583 237.546208-0.081864 3.673669-0.005117 4.807493 0.783853 4.747117 4.644787-0.24457 15.576767-0.239454 31.159674-0.00307 46.735417 0.058328 3.836375-1.025353 4.695952-4.747117 4.684696-44.490284-0.134053-88.979544-0.086981-133.469827-0.086981-1.746784 0-3.494591 0-6.284123 0 35.524075 55.120388 70.635757 109.606327 106.148575 164.711366-9.872858 2.034333-19.289322 4.225231-28.79686 5.895267-50.588165 8.882298-95.202269 29.965475-132.62253 65.364707-43.385113 41.042765-69.220524 91.330078-77.647451 150.464897-1.585101 11.126408-2.194992 22.356171-2.188852 33.621748 0.046049 82.874499 0.00921 165.752068 0.030699 248.628614 0.014326 56.877405 37.315884 101.872179 93.251847 112.482841 5.999644 1.137916 12.089339 1.52575 18.210757 1.524726 93.315292-0.01842 186.630584 0.200568 279.945877-0.092098 53.603849-0.168846 97.832166-36.489052 109.302405-88.85777 1.546216-7.059789 2.353604-14.246469 2.352581-21.500687-0.01228-85.445044 0.273223-170.892135-0.105401-256.336156-0.434905-97.957009-62.426795-189.784414-152.757103-227.934293-23.682375-10.001795-48.52825-15.252379-73.525574-20.194948-4.713348-0.931209-9.414417-1.924839-14.136975-2.89391-0.350994-1.795902 0.962931-2.726088 1.672082-3.824095 42.97272-66.7431 85.995583-133.451408 128.936581-200.213951 1.868557-2.90312 3.038196-3.910053 6.467295-1.605567 13.045107 8.762571 26.28976 17.232476 39.639812 25.51921 3.220345 1.998517 3.046383 3.305279 1.182942 6.180769-28.76923 44.416606-57.375755 88.939635-86.170568 133.339868-2.307555 3.555989-2.26867 4.502547 2.004657 6.189979 106.529245 42.078351 172.337043 119.010511 197.041702 230.945883 2.390443 10.825556 3.489474 21.848611 4.660136 32.855292 0.106424 0.989537-0.556679 2.335185 0.986467 2.864234 0 2.569522 0 5.13802 0 7.709589-1.044796 1.849114-0.243547 3.857864-0.497327 5.777587 0.251733 1.920746-0.546446 3.933589 0.497327 5.786797 0 85.452207 0 170.900322 0 256.353552-0.788969 1.926886-0.788969 3.855818 0 5.782703 0 3.213181 0 6.423293 0 9.636474-1.044796 10.174734-2.506077 20.259416-5.476735 30.098505-7.440459 24.654516-19.602454 46.582945-36.915771 65.719794-22.355147 24.708751-49.665143 41.172725-81.656765 50.1594-13.880125 3.898797-28.016077 5.140067-42.36283 4.831029-92.666516 0.002047-185.322799-0.002047-277.977036 0.025583-1.888 0.001023-3.853771-0.49221-5.674233 0.472767-0.642636 0-1.286296 0-1.927909 0-3.717671-1.175779-7.596002-0.611937-11.372002-0.831948-26.455535-1.552356-50.495044-10.42135-72.704882-24.275893-37.555337-23.429619-62.08194-56.798611-74.238818-99.342566-2.515287-8.801457-3.456728-17.832134-4.554736-26.855648 0-1.284249 0-2.570545 0-3.855818 0.593518-0.532119 0.473791-1.248434 0.496304-1.927909-0.021489-0.679475 0.096191-1.394766-0.496304-1.926886 0-91.8755 0-183.752024 0-275.627525 0.648776-0.595564 0.452301-1.388627 0.496304-2.12336-0.099261-0.911766 0.283456-1.910513-0.496304-2.696412C204.56863 518.985088 204.56863 517.697769 204.56863 516.415566zM649.161405 951.706487c-0.028653 0.289596-0.037862 0.580215-0.024559 0.87288-100.95325 0-201.907523 0-302.860772 0 0.955768-1.918699 2.716878-0.974188 4.059456-0.975211 99.102089-0.060375 198.206224-0.063445 297.308313-0.062422C648.149355 951.541735 648.655891 951.650205 649.161405 951.706487zM823.136761 497.188666c0.366344-2.013867-1.075495-4.314259 0.962931-6.063089 0 2.046612 0 4.093225 0 6.139837C823.739489 497.735112 823.41817 497.709529 823.136761 497.188666zM823.136761 497.188666c0.320295 0.039909 0.64059 0.064468 0.962931 0.075725 0 2.046612 0 4.093225 0 6.138814C822.264904 501.567393 823.355749 499.276211 823.136761 497.188666zM824.099692 781.708721c-1.597381-2.046612-1.51654-4.092201 0-6.138814C824.099692 777.61652 824.099692 779.662109 824.099692 781.708721zM171.312202 486.010069c1.666966 0.6191 0.817622 1.939165 0.838088 3.015683-0.24764 0.508583-0.527003 0.527003-0.838088 0.054235C171.312202 488.056682 171.312202 487.033375 171.312202 486.010069zM171.312202 489.079988c0.277316-0.046049 0.556679-0.064468 0.838088-0.054235 0.195451 0.889253 0.209778 1.705851-0.838088 2.099824C171.312202 490.443032 171.312202 489.762533 171.312202 489.079988zM171.312202 783.755334c0.951675 0.425695 1.023306 1.216711 0.870834 2.100848-0.316202 0.39295-0.606821 0.396019-0.870834-0.054235C171.312202 785.119401 171.312202 784.437879 171.312202 783.755334zM171.312202 785.801946c0.290619 0.019443 0.581238 0.036839 0.870834 0.054235 0.112564 0.840134 0.273223 1.700735-0.870834 1.991354C171.312202 787.166013 171.312202 786.484492 171.312202 785.801946zM438.597735 624.908536c8.354272 0 16.71059 0.101307 25.060769-0.054235 2.945075-0.054235 4.203742 0.361227 4.726651 3.88754 2.375094 16.005532 16.715707 27.40107 31.626301 25.674753 16.609283-1.924839 28.083615-15.064091 27.329439-31.292704-0.705058-15.169491-12.955056-27.350928-28.664853-27.77867-21.106714-0.576121-40.454364-6.243191-56.653301-19.987217-28.946262-24.559349-39.930431-55.94108-29.912263-92.549859 9.870812-36.069497 34.632775-58.111512 71.679529-64.358797 51.382251-8.664334 98.56383 28.977985 102.733802 80.959893 0.545422 6.809079 0.545422 6.809079-6.447852 6.809079-16.025998 0-32.05302-0.098237-48.076972 0.080841-3.329838 0.036839-4.440126-0.652869-4.975315-4.235464-2.316765-15.496949-14.892175-25.853831-30.230512-25.475208-14.70184 0.363274-26.967188 11.611455-28.629038 26.254967-1.619894 14.281261 7.743358 28.083615 21.645996 31.889291 7.147794 1.957585 14.57188 1.014096 21.832238 2.176572 42.487673 6.803963 74.517157 43.456744 75.055416 86.177731 0.555655 44.036959-30.057573 81.367169-73.183789 89.236394-52.02898 9.494235-101.132328-28.758997-104.777345-81.425498-0.342808-4.948709 0.771573-6.418176 5.830799-6.117324C422.55127 625.25953 430.585247 624.908536 438.597735 624.908536zM527.377734 358.097818c0 8.6848-0.116657 17.372669 0.062422 26.054399 0.064468 3.113921-0.467651 4.452405-4.079922 4.409426-17.198707-0.203638-34.399461-0.146333-51.599192-0.036839-2.786463 0.01842-3.815909-0.63752-3.793396-3.641947 0.1361-17.539468 0.118704-35.080983 0.01228-52.620451-0.017396-2.728134 0.488117-3.839445 3.562129-3.813862 17.368576 0.149403 34.741245 0.177032 52.109822-0.01842 3.417843-0.037862 3.839445 1.239224 3.784186 4.124947C527.27438 341.065909 527.377734 349.581863 527.377734 358.097818zM497.705947 803.777343c-8.527211 0-17.055444-0.096191-25.578562 0.054235-2.862187 0.051165-4.219091-0.333598-4.181229-3.78828 0.191358-17.563004 0.137123-35.129078 0.034792-52.692083-0.01535-2.606361 0.606821-3.5038 3.378957-3.483334 17.563004 0.124843 35.129078 0.124843 52.692083 0 2.772136-0.020466 3.393283 0.877997 3.378957 3.484358-0.102331 17.563004-0.155543 35.129078 0.034792 52.691059 0.037862 3.455705-1.320065 3.839445-4.181229 3.78828C514.760368 803.681152 506.232135 803.777343 497.705947 803.777343z" p-id="13221"></path></svg>