<?xml version="1.0" standalone="no"?><!DOCTYPE svg PUBLIC "-//W3C//DTD SVG 1.1//EN" "http://www.w3.org/Graphics/SVG/1.1/DTD/svg11.dtd"><svg class="icon" width="200px" height="200.00px" viewBox="0 0 1024 1024" version="1.1" xmlns="http://www.w3.org/2000/svg"><path d="M744.220444 229.831111l1.024 7.566222-11.377777 2.332445-1.536 16.156444h13.653333l18.147556-1.763555 9.329777-11.093334-9.955555-3.868444-5.461334-6.257778-8.192-13.255111-3.925333-18.659556-15.36 3.072-4.323555 6.656v7.395556l7.395555 5.006222z" fill="#000000" /><path d="M731.192889 236.088889l0.796444-10.183111-9.045333-3.925334-12.572444 2.901334-9.329778 15.075555v9.671111h10.808889zM471.779556 279.04l-2.787556 7.054222H455.68v6.997334h3.128889s0.227556 1.422222 0.398222 3.413333l8.362667-0.739556 5.12-3.185777 1.308444-6.485334 6.656-0.512 2.56-5.404444-6.030222-1.251556-5.347556 0.113778zM437.134222 291.555556l-0.568889 6.826666 9.784889-0.796444 1.024-6.826667-5.859555-4.664889z" fill="#000000" /><path d="M1021.269333 508.017778a508.586667 508.586667 0 0 0-36.124444-183.466667c-1.365333-3.128889-2.56-6.542222-3.925333-9.671111a512.113778 512.113778 0 0 0-95.800889-148.024889c-2.56-2.844444-5.233778-5.575111-7.850667-8.362667a508.757333 508.757333 0 0 0-366.933333-155.875555A508.700444 508.700444 0 0 0 164.977778 137.898667c-21.219556 19.569778-40.732444 40.96-58.368 63.715555A507.904 507.904 0 0 0 0 513.308444c0 281.6 229.148444 510.634667 510.634667 510.634667 198.200889 0 370.062222-113.436444 454.826666-278.641778a504.035556 504.035556 0 0 0 47.957334-142.791111c5.12-28.899556 7.907556-58.766222 7.907555-89.201778l-0.056889-5.233777z m-96.142222-204.060445l2.958222-3.413333c3.925333 7.623111 7.509333 15.36 10.979556 23.04l-4.835556-0.113778-9.102222 1.194667v-20.707556z m-73.841778-89.144889l0.113778-22.869333c7.964444 8.533333 15.758222 17.351111 23.153778 26.396445l-9.216 13.710222-32.142222-0.284445-2.048-6.656 20.138666-10.24zM235.292444 158.151111v-0.796444h10.24l0.853334-3.470223h16.782222v7.281778l-4.778667 6.314667h-23.096889V158.151111z m16.384 22.755556s10.183111-1.706667 11.093334-1.706667c0.796444 0 0 10.24 0 10.24l-23.096889 1.422222-4.380445-5.176889 16.384-4.721777z m705.991112 202.808889h-37.376l-22.755556-16.952889-24.007111 2.275555v14.677334h-7.566222l-8.192-5.859556-41.472-10.524444v-26.908445l-52.622223 4.096-16.270222 8.817778h-20.935111l-10.24-1.137778-25.372444 14.222222v26.396445l-51.768889 37.319111 4.323555 16.042667h10.524445l-2.730667 15.189333-7.395555 2.730667-0.398223 39.708444 44.714667 51.086222h19.569778l1.137778-3.185778h35.043555l10.069333-9.329777h19.911112l10.865777 10.865777 29.639111 3.185778-3.925333 39.253334 32.995556 58.026666-17.408 33.166222 1.137777 15.587556 13.653334 13.539556v37.546666l17.863111 24.007111v31.175111h15.473778a467.740444 467.740444 0 0 1-363.52 173.340445c-258.446222 0-468.593778-210.261333-468.593778-468.764445 0-64.967111 13.312-127.032889 37.319111-183.352888v-14.677334l16.839111-20.309333c5.859556-10.922667 12.003556-21.731556 18.659556-32.199111l0.853333 8.533333-19.512889 23.665778c-6.030222 11.377778-11.662222 22.983111-16.725333 34.986667v26.680888l19.399111 9.329778v37.148445l18.659555 31.800889 15.303112 2.332444 1.934222-10.865778-17.976889-27.704889-3.470222-26.851555h10.467555l4.437334 27.648 25.941333 37.774222-6.826667 12.231111 16.497778 25.201778 40.96 10.069333v-6.599111l16.327111 2.389333-1.536 11.605334 12.913778 2.275555 19.797333 5.461334 27.989334 32.028444 35.896888 2.673778 3.527112 29.240889-24.519112 17.066666-1.137777 26.112-3.584 15.985778 35.498666 44.373334 2.730667 15.246222s12.856889 3.413333 14.336 3.413333c1.592889 0 28.842667 20.650667 28.842667 20.650667v80.327111l9.728 2.673778-6.656 36.977777 16.440889 21.902223-2.958223 36.579555 21.504 38.115556 27.818667 24.120889 27.875556 0.568889 2.673777-8.931556-20.423111-17.351111 1.137778-8.533333 3.697778-10.581334 0.739555-10.638222-13.880889-0.398222-6.940444-8.704 11.434667-11.207111 1.592889-8.305778-12.856889-3.697778 0.739555-7.793778 18.375111-2.787555 27.875556-13.312 9.329778-17.123556 29.240889-37.432889-6.712889-29.240889 8.931555-15.587555 26.908445 0.853333 18.147555-14.222222 5.859556-56.490667 19.968-25.486222 3.584-16.327111-18.318222-5.973333-12.117334-19.797334-41.244444-0.398222-32.711111-12.401778-1.536-23.381333-10.979556-19.057778-29.582222-0.455111-17.066667-26.851555-15.189333-7.509334-0.853333 8.248889-27.591112 1.592889-10.126222-14.051556-28.842666-5.802666-23.779556 27.306666-37.319111-6.200888-2.787556-42.097778-27.306666-4.778667 10.979555-20.593778-3.128889-11.946666-35.84 24.064-22.528-2.844445-7.964444-17.635555 4.778667-18.090667 12.515555-22.983111 28.615111-14.506667h55.239111l-0.170666 16.839111 19.911111 9.329778-1.536-28.785778 14.222222-14.449777 28.956444-19.000889 2.048-13.368889 28.785778-30.037334 30.606222-16.896-2.673777-2.275555 20.707555-19.456 7.623111 1.934222 3.413334 4.380445 7.964444-8.704 1.934222-0.910223-8.647111-1.251555-8.760889-2.844445v-8.419555l4.664889-3.811556h10.183111l4.721778 2.048 4.096 8.248889 4.892445-0.853333V259.413333l1.479111 0.568889 14.336-2.161778 2.048-7.111111 8.192 2.048v7.68l-7.566223 5.290667 1.137778 8.305778 25.941334 7.964444 0.113777 0.284445 5.916445-0.455111 0.398222-11.320889-20.593778-9.329778-1.137778-5.404445 17.123556-5.859555 0.739556-16.440889-17.976889-10.808889-1.137778-27.648-24.462222 12.003556h-8.931556l2.275556-21.048889-33.336889-7.850667-13.880889 10.467556v31.857777l-24.803556 7.850667-9.955555 20.821333-10.865778 1.706667v-26.567111l-23.324444-3.299556-11.662223-7.566222-4.721777-17.237333 41.756444-24.462222 20.48-6.200889 2.104889 13.767111 11.377778-0.568889 0.796444-6.940444 11.946667-1.649778 0.170666-2.446222-5.12-2.161778-1.137777-7.281778 14.677333-1.194667 8.817778-9.272889 0.512-0.568888h0.056889l2.730666-2.844445 30.72-3.868444 13.653334 11.605333-35.669334 18.944 45.283556 10.808889 5.973333-15.189333h19.797334l7.054222-13.255112-14.051556-3.584V133.12l-43.975111-19.512889-30.378667 3.470222-17.066666 9.045334 1.137778 21.731555-17.976889-2.673778-2.787556-12.060444 17.237333-15.644444-31.175111-1.536-8.931555 2.844444-3.925334 10.410667 11.719112 1.934222-2.332445 11.719111-19.911111 1.194667-3.072 7.736889-28.842667 0.796444s-0.682667-16.327111-1.934222-16.327111l22.528-0.398222 17.237333-16.782223-9.443555-4.664888-12.401778 12.117333-20.707555-1.251556-12.401778-17.066666h-26.453334l-27.704888 20.593777h25.315555l2.389333 7.452445-6.599111 6.087111 27.989334 0.796444 4.323555 10.126223-31.573333-1.194667-1.536-7.793778-19.797333-4.323555-10.581334-5.802667-23.552 0.170667A465.92 465.92 0 0 1 510.634667 44.714667c118.613333 0 226.816 44.259556 309.475555 117.020444l-5.575111 9.898667-21.617778 8.533333-9.102222 9.841778 2.048 11.605333 11.150222 1.536 6.826667 16.782222 19.114667-7.793777 3.185777 22.471111h-5.688888l-15.815112-2.332445-17.521777 2.958223-16.952889 24.007111-24.348445 3.811555-3.413333 20.707556 10.24 2.446222-3.015111 13.368889-24.064-4.835556-22.072889 4.835556-4.608 12.174222 3.811556 25.827556 12.913777 6.087111 21.731556-0.113778 14.677333-1.308444 4.494222-11.719112 22.983112-29.752888 15.075555 3.072 14.848-13.425778 2.844445 10.467555 36.579555 24.746667-4.551111 5.916444-16.497778-0.796444 6.371556 8.874667 10.126222 2.275555 11.946667-4.949333-0.227556-14.336 5.233778-2.673778-4.209778-4.551111-24.462222-13.482667-6.428445-18.204444h20.309334l6.485333 6.485333 17.521778 15.075556 0.739555 18.204444 18.033778 19.228445 6.769778-26.339556 12.515556-6.826667 2.332444 21.617778 12.344889 13.425778 24.405333-0.398222c4.721778 12.117333 8.931556 24.462222 12.572445 37.091555l-2.503111 2.389334zM278.528 234.609778l12.231111-5.859556 11.093333 2.673778-3.811555 14.904889-11.946667 3.811555-7.566222-15.530666z m65.194667 35.100444v9.671111h-28.103111l-10.467556-2.901333 2.673778-6.826667 13.368889-5.461333h18.432v5.518222h4.096z m12.8 13.425778v9.329778l-6.997334 4.551111-8.817777 1.592889v-15.473778h15.815111z m-7.964445-3.811556v-11.036444l9.671111 8.704-9.671111 2.332444z m4.437334 22.471112v9.102222l-6.656 6.712889h-14.961778l2.389333-10.183111 7.054222-0.568889 1.422223-3.527111 10.808888-1.536z m-37.091556-18.659556h15.473778l-19.797334 27.818667-8.192-4.437334 1.706667-11.662222 10.808889-11.719111z m63.374222 15.473778v9.102222h-14.848l-4.096-5.916444v-8.419556h1.194667l17.749333 5.233778z m-13.710222-12.515556l4.266667-4.380444 7.168 4.380444-5.688889 4.721778-5.745778-4.721778z m599.665778 121.173334l1.536-1.706667 1.877333 8.021333-3.413333-6.371555z" fill="#203152" /><path d="M79.36 315.221333V329.955556c5.12-11.946667 10.808889-23.608889 16.839111-34.986667l-16.839111 20.309333z" fill="#000000" /></svg>