<?xml version="1.0" standalone="no"?><!DOCTYPE svg PUBLIC "-//W3C//DTD SVG 1.1//EN" "http://www.w3.org/Graphics/SVG/1.1/DTD/svg11.dtd"><svg class="icon" width="200px" height="200.00px" viewBox="0 0 1024 1024" version="1.1" xmlns="http://www.w3.org/2000/svg"><path fill="#333333" d="M460.8 153.6c-6.826667 0-13.653333-3.413333-20.48-6.826667-6.826667-6.826667-6.826667-13.653333-6.826667-20.48V68.266667h535.893334c6.826667 0 13.653333 3.413333 20.48 6.826666 6.826667 6.826667 6.826667 13.653333 6.826666 20.48v58.026667H460.8zM129.706667 989.866667V450.56L273.066667 409.6v580.266667H129.706667zM583.68 989.866667c-30.72 0-51.2-3.413333-54.613333-3.413334h-3.413334v-85.333333h3.413334c17.066667 3.413333 34.133333 3.413333 47.786666 3.413333 64.853333 0 116.053333-17.066667 146.773334-51.2 34.133333-37.546667 37.546667-88.746667 37.546666-112.64V372.053333h143.36v341.333334c0 109.226667-40.96 187.733333-122.88 235.52-64.853333 34.133333-143.36 40.96-197.973333 40.96zM433.493333 416.426667c-6.826667 0-13.653333-3.413333-20.48-6.826667-6.826667-6.826667-6.826667-13.653333-6.826666-20.48V331.093333h590.506666c6.826667 0 13.653333 3.413333 20.48 6.826667 6.826667 6.826667 6.826667 13.653333 6.826667 20.48v58.026667H433.493333zM0 464.213333c126.293333-34.133333 211.626667-95.573333 273.066667-194.56h98.986666c13.653333 0 13.653333 13.653333 10.24 23.893334-51.2 98.986667-126.293333 160.426667-187.733333 197.973333C129.706667 529.066667 75.093333 546.133333 34.133333 552.96c-13.653333 3.413333-23.893333-3.413333-23.893333-17.066667S0 464.213333 0 464.213333zM0 215.04C150.186667 187.733333 235.52 88.746667 262.826667 34.133333h102.4c17.066667 0 13.653333 17.066667 10.24 23.893334-88.746667 177.493333-262.826667 238.933333-337.92 252.586666-10.24 3.413333-27.306667-3.413333-30.72-20.48 0-10.24-6.826667-75.093333-6.826667-75.093333z" /></svg>