<?xml version="1.0" standalone="no"?><!DOCTYPE svg PUBLIC "-//W3C//DTD SVG 1.1//EN" "http://www.w3.org/Graphics/SVG/1.1/DTD/svg11.dtd"><svg t="1563188769325" class="icon" viewBox="0 0 1024 1024" version="1.1" xmlns="http://www.w3.org/2000/svg" p-id="7022" xmlns:xlink="http://www.w3.org/1999/xlink" width="200" height="200"><defs><style type="text/css"></style></defs><path d="M128 639.488h340.992V596.48H128v43.008z m896-468.992H0v683.008h1024V170.496z m-43.008 640H43.008V213.504h937.984v596.992zM829.584 442.757c14.666-15.32 23.75-35.977 23.75-58.82 0-47.128-38.25-85.376-85.334-85.376-47.082 0-85.333 38.248-85.333 85.376 0 22.844 9.083 43.458 23.667 58.778C666.874 464.54 640 506.372 640 554.69h42c0-47.504 38.502-86.064 86-86.064s86 38.561 86 86.064h42c0-48.317-26.916-90.11-66.416-111.932zM768 441.297c-31.666 0-57.333-25.679-57.333-57.362s25.667-57.362 57.333-57.362c31.667 0 57.334 25.679 57.334 57.362 0 31.683-25.667 57.363-57.334 57.363zM128 729.6h340.992v-43.008H128V729.6z" fill="" p-id="7023"></path></svg>