<?xml version="1.0" standalone="no"?><!DOCTYPE svg PUBLIC "-//W3C//DTD SVG 1.1//EN" "http://www.w3.org/Graphics/SVG/1.1/DTD/svg11.dtd"><svg class="icon" width="200px" height="200.00px" viewBox="0 0 1024 1024" version="1.1" xmlns="http://www.w3.org/2000/svg"><path fill="#333333" d="M904.791991 81.766258 121.360022 81.766258c-54.196343 0-98.287537 44.092217-98.287537 98.296747 0 54.196343 44.092217 98.287537 98.287537 98.287537l16.244986 0 268.666996 265.982864 0 367.70257c0 32.42755 39.826054 47.962362 61.783135 24.098861l121.828696-132.408659c12.06171-13.108552 18.756179-30.271444 18.756179-48.086182L608.640014 555.792389l277.441846-277.441846 18.709107 0c54.204529 0 98.296747-44.092217 98.296747-98.287537C1003.088738 125.858476 958.99652 81.766258 904.791991 81.766258zM539.259854 527.047718l0 229.225705-63.605643 69.13559L475.65421 515.385097 219.224933 261.344217l583.52808 2.210341L539.259854 527.047718zM121.360022 151.148465l783.431969 0c15.939017 0 28.91454 12.975523 28.91454 28.91454s-12.975523 28.906353-28.91454 28.906353L151.272285 208.969359l-31.152511-0.125867c-15.353686-0.665149-27.665083-13.265118-27.665083-28.780487C92.453668 164.122965 105.421005 151.148465 121.360022 151.148465z" /></svg>