<?xml version="1.0" standalone="no"?><!DOCTYPE svg PUBLIC "-//W3C//DTD SVG 1.1//EN" "http://www.w3.org/Graphics/SVG/1.1/DTD/svg11.dtd"><svg class="icon" width="200px" height="200.00px" viewBox="0 0 1024 1024" version="1.1" xmlns="http://www.w3.org/2000/svg"><path fill="#333333" d="M542.08 173.824h206.912L608.896 467.072l0.832 1.536h32.448L772.672 195.52 901.76 468.608h33.664L796.096 173.824h0.064v-31.488H565.568v-20.16c0-32.064-26.112-58.176-58.176-58.176-32.128 0-58.176 26.112-58.176 58.176v20.096H225.664v31.488h3.072L88.576 467.072l0.832 1.536h32.448L252.352 195.52 381.44 468.608h33.664L275.84 173.824h195.008v680.064l-245.12 73.536V960H796.16v-32.576l-254.08-73.536V173.824zM415.168 512c0-1.856-0.192-3.648-0.256-5.44H88.896c-0.064 1.792-0.256 3.584-0.256 5.44 0 90.176 73.088 163.328 163.264 163.328 90.176 0 163.264-73.152 163.264-163.328zM609.152 506.56c-0.064 1.792-0.256 3.584-0.256 5.44 0 90.176 73.152 163.328 163.264 163.328S935.36 602.176 935.36 512c0-1.856-0.192-3.648-0.256-5.44H609.152z" /></svg>