<?xml version="1.0" standalone="no"?><!DOCTYPE svg PUBLIC "-//W3C//DTD SVG 1.1//EN" "http://www.w3.org/Graphics/SVG/1.1/DTD/svg11.dtd"><svg t="1553248439912" class="icon" style="" viewBox="0 0 1024 1024" version="1.1" xmlns="http://www.w3.org/2000/svg" p-id="7336" xmlns:xlink="http://www.w3.org/1999/xlink" width="200" height="200"><defs><style type="text/css"></style></defs><path d="M512 989.867C248.081 989.867 34.133 775.919 34.133 512S248.081 34.133 512 34.133 989.867 248.081 989.867 512 775.919 989.867 512 989.867z m24.136-536.136a34.16 34.16 0 0 1 7.315 10.851c-1.482-3.669-3.984-7.52-7.315-10.851z m-72.407 24.136H341.333c-18.852 0-34.133 15.281-34.133 34.133 0 18.852 15.281 34.133 34.133 34.133h136.533V614.4H341.333c-18.852 0-34.133 15.281-34.133 34.133 0 18.852 15.281 34.133 34.133 34.133h136.533v68.267c0 18.852 15.281 34.133 34.133 34.133 18.852 0 34.133-15.281 34.133-34.133v-68.267h136.533c18.852 0 34.133-15.281 34.133-34.133 0-18.852-15.281-34.133-34.133-34.133H546.133v-68.267h136.533c18.852 0 34.133-15.281 34.133-34.133 0-18.852-15.281-34.133-34.133-34.133H560.271l120.682-120.678c13.329-13.332 13.329-34.942 0-48.275-13.333-13.329-34.942-13.329-48.275 0L512 429.595 391.322 308.914c-13.332-13.329-34.942-13.329-48.271 0-13.332 13.332-13.332 34.942 0 48.275l120.678 120.678z" p-id="7337"></path></svg>