<?xml version="1.0" standalone="no"?><!DOCTYPE svg PUBLIC "-//W3C//DTD SVG 1.1//EN" "http://www.w3.org/Graphics/SVG/1.1/DTD/svg11.dtd"><svg t="1552987086997" class="icon" style="" viewBox="0 0 1024 1024" version="1.1" xmlns="http://www.w3.org/2000/svg" p-id="2503" xmlns:xlink="http://www.w3.org/1999/xlink" width="200" height="200"><defs><style type="text/css"></style></defs><path d="M399.36 512c0 39.936-31.744 71.68-71.68 71.68s-71.68-31.744-71.68-71.68 31.744-71.68 71.68-71.68 71.68 31.744 71.68 71.68z m112.64-71.68c-39.936 0-71.68 31.744-71.68 71.68s31.744 71.68 71.68 71.68 71.68-31.744 71.68-71.68-31.744-71.68-71.68-71.68z m184.32 0c-39.936 0-71.68 31.744-71.68 71.68s31.744 71.68 71.68 71.68 71.68-31.744 71.68-71.68-31.744-71.68-71.68-71.68z m276.48 71.68c0 253.952-206.848 460.8-460.8 460.8S51.2 765.952 51.2 512 258.048 51.2 512 51.2s460.8 206.848 460.8 460.8z m-40.96 0C931.84 280.576 743.424 92.16 512 92.16S92.16 280.576 92.16 512s188.416 419.84 419.84 419.84 419.84-188.416 419.84-419.84z" fill="" p-id="2504"></path></svg>