<?xml version="1.0" standalone="no"?><!DOCTYPE svg PUBLIC "-//W3C//DTD SVG 1.1//EN" "http://www.w3.org/Graphics/SVG/1.1/DTD/svg11.dtd"><svg class="icon" width="200px" height="200.00px" viewBox="0 0 1024 1024" version="1.1" xmlns="http://www.w3.org/2000/svg"><path fill="#333333" d="M515.998 55.996c-253.6 0-459.2 179.9-459.2 401.8 0 126.822 67.292 232.518 172.206 306.166l0 210.456 210.458-114.806 76.534 0c253.626 0 459.222-179.878 459.204-401.816C975.202 235.896 769.604 55.996 515.998 55.996zM286.382 515.206c-31.69 0-57.386-25.694-57.386-57.4 0-31.708 25.698-57.422 57.386-57.422 31.724 0 57.418 25.698 57.418 57.422S318.084 515.206 286.382 515.206zM515.988 515.206c-31.724 0-57.418-25.694-57.418-57.418s25.694-57.422 57.418-57.422 57.422 25.698 57.422 57.422S547.714 515.206 515.988 515.206zM745.622 515.206c-31.724 0-57.422-25.694-57.422-57.418s25.698-57.422 57.422-57.422c31.686 0 57.384 25.698 57.384 57.422S777.306 515.206 745.622 515.206z" /></svg>