<?xml version="1.0" standalone="no"?><!DOCTYPE svg PUBLIC "-//W3C//DTD SVG 1.1//EN" "http://www.w3.org/Graphics/SVG/1.1/DTD/svg11.dtd"><svg t="1563172403082" class="icon" viewBox="0 0 1024 1024" version="1.1" xmlns="http://www.w3.org/2000/svg" p-id="5754" xmlns:xlink="http://www.w3.org/1999/xlink" width="200" height="200"><defs><style type="text/css"></style></defs><path d="M706.831194 551.721235l-131.627885-78.086073L841.172 0.255936l131.627885 78.086074-265.968691 473.379225z m-62.422791-97.153305l43.867431 26.028691 215.318956-383.212973-43.893024-26.028691-215.293363 383.212973z m-0.895776 209.86752l-114.556953 52.262131L511.884742 586.349376l50.649735-90.166253 131.627885 78.086074-50.649735 90.166253z m-62.42279-97.153306l-25.337664 45.095923 8.599449 35.140013 35.267981-9.111322 25.337664-45.095923-43.86743-26.028691zM767.820742 844.5888H204.761542v-51.1872h563.0592v51.1872zM204.761542 486.2784h230.3424v51.1872H204.761542v-51.1872z m230.3424 204.7488H204.761542v-51.1872h230.3424v51.1872zM102.387142 281.5296v639.84a51.1872 51.1872 0 0 0 51.1872 51.1872h665.4336a51.1872 51.1872 0 0 0 51.1872-51.1872V639.84h51.1872v281.5296a102.3744 102.3744 0 0 1-102.3744 102.3744H153.574342a102.3744 102.3744 0 0 1-102.3744-102.3744V281.5296a102.3744 102.3744 0 0 1 102.3744-102.3744h358.3104v51.1872H153.574342a51.1872 51.1872 0 0 0-51.1872 51.1872z" fill="#2c2c2c" p-id="5755"></path></svg>