<?xml version="1.0" standalone="no"?><!DOCTYPE svg PUBLIC "-//W3C//DTD SVG 1.1//EN" "http://www.w3.org/Graphics/SVG/1.1/DTD/svg11.dtd"><svg class="icon" width="200px" height="144.53px" viewBox="0 0 1417 1024" version="1.1" xmlns="http://www.w3.org/2000/svg"><path fill="#333333" d="M362.338462 701.046154c-31.507692 15.753846-55.138462 39.384615-70.892308 55.138461-7.876923 23.630769-15.753846 31.507692-23.630769 31.507693h-244.184616c0-63.015385 31.507692-102.4 94.523077-126.03077 0 0 7.876923 0 31.507692-7.876923 15.753846-7.876923 31.507692-7.876923 39.384616-15.753846 15.753846-7.876923 15.753846-7.876923 23.630769-15.753846v-47.261538c-39.384615 7.876923-70.892308 0-94.523077-23.63077l15.753846-39.384615c0-7.876923 7.876923-7.876923 7.876923-15.753846v-15.753846-86.646154c0-78.769231 7.876923-126.030769 23.63077-149.661539 23.630769-39.384615 63.015385-55.138462 118.153846-55.138461 86.646154 0 133.907692 39.384615 141.784615 110.276923 7.876923 15.753846 7.876923 47.261538 7.876923 78.769231v63.015384c0 23.630769 7.876923 47.261538 15.753846 70.892308 7.876923 15.753846 7.876923 23.630769 7.876923 31.507692l-15.753846 7.876923c-7.876923 7.876923-31.507692 7.876923-55.138461 15.753847h-31.507693v31.507692c0 15.753846 7.876923 15.753846 15.753847 23.630769 7.876923 0 7.876923 7.876923 23.630769 7.876923 7.876923 0 23.630769 7.876923 31.507692 7.876923 7.876923 0 15.753846 7.876923 15.753846 7.876923 7.876923 7.876923 7.876923 15.753846-7.876923 15.753846-31.507692 23.630769-55.138462 31.507692-70.892307 39.384616l-15.753847 7.876923c7.876923-7.876923 7.876923-7.876923 15.753847-7.876923z m630.153846 39.384615c39.384615 15.753846 78.769231 39.384615 102.4 78.769231 23.630769 39.384615 39.384615 78.769231 39.384615 118.153846h-858.584615c0-70.892308 31.507692-133.907692 86.646154-165.415384 23.630769-15.753846 70.892308-31.507692 149.661538-47.261539 47.261538-7.876923 78.769231-15.753846 78.769231-39.384615v-70.892308c0-7.876923 0-7.876923-7.876923-15.753846s-15.753846-23.630769-23.63077-39.384616c-7.876923-15.753846-7.876923-39.384615-15.753846-70.892307-7.876923 0-15.753846 0-23.630769-7.876923-7.876923-7.876923-7.876923-15.753846-15.753846-31.507693 0-15.753846-7.876923-23.630769-7.876923-23.630769-7.876923-47.261538-7.876923-63.015385 7.876923-63.015384-7.876923-7.876923-7.876923-31.507692-15.753846-55.138462-7.876923-47.261538 0-86.646154 7.876923-118.153846 15.753846-39.384615 39.384615-70.892308 78.769231-86.646154 39.384615-23.630769 78.769231-31.507692 118.153846-31.507692s78.769231 15.753846 110.276923 39.384615c31.507692 23.630769 55.138462 55.138462 70.892308 94.523077 7.876923 31.507692 7.876923 70.892308 0 118.153846-7.876923 23.630769-7.876923 39.384615-15.753847 47.261539 7.876923 0 7.876923 0 15.753847 7.876923s7.876923 15.753846 0 23.630769v23.630769c0 7.876923 0 15.753846-7.876924 15.753846l-7.876923 23.63077c0 15.753846-7.876923 23.630769-7.876923 31.507692-7.876923 7.876923-15.753846 7.876923-23.630769 7.876923-7.876923 47.261538-7.876923 78.769231-23.630769 94.523077 0 0 0 7.876923-7.876923 15.753846s-7.876923 15.753846-7.876923 15.753846v31.507692c0 23.630769 0 39.384615 7.876923 47.261539 7.876923 7.876923 15.753846 15.753846 39.384615 23.630769 15.753846 7.876923 31.507692 7.876923 63.015385 15.753846 63.015385-15.753846 78.769231-15.753846 94.523077-7.876923z m-630.153846-39.384615z m937.353846-31.507692c63.015385 23.630769 94.523077 63.015385 94.523077 126.030769h-244.184616c-7.876923-15.753846-23.630769-31.507692-47.261538-55.138462-31.507692-23.630769-63.015385-39.384615-86.646154-47.261538h-39.384615c-7.876923 0-7.876923-7.876923-7.876924-15.753846 7.876923-7.876923 15.753846-15.753846 39.384616-15.753847 31.507692-7.876923 47.261538-15.753846 47.261538-23.630769v-39.384615c-15.753846 0-31.507692 0-55.138461-7.876923-15.753846-7.876923-23.630769-7.876923-31.507693-15.753846-7.876923-7.876923-7.876923-15.753846 0-31.507693s7.876923-63.015385 15.753847-157.538461c7.876923-86.646154 31.507692-141.784615 86.646153-165.415385 55.138462-23.630769 102.4-15.753846 149.661539 7.876923 39.384615 23.630769 63.015385 70.892308 63.015385 133.907693V464.738462c0 15.753846 0 31.507692 7.876923 47.261538 7.876923 15.753846 7.876923 31.507692 15.753846 47.261538 7.876923 7.876923 7.876923 15.753846 0 15.753847h-15.753846l-39.384616 7.876923h-39.384615v55.138461c7.876923 7.876923 15.753846 7.876923 23.630769 15.753846 7.876923 7.876923 23.630769 7.876923 31.507692 7.876923 15.753846 0 23.630769 7.876923 31.507693 7.876924z" /></svg>