<?xml version="1.0" standalone="no"?><!DOCTYPE svg PUBLIC "-//W3C//DTD SVG 1.1//EN" "http://www.w3.org/Graphics/SVG/1.1/DTD/svg11.dtd"><svg t="1563871313598" class="icon" viewBox="0 0 1024 1024" version="1.1" xmlns="http://www.w3.org/2000/svg" p-id="2003" xmlns:xlink="http://www.w3.org/1999/xlink" width="200" height="200"><defs><style type="text/css"></style></defs><path d="M1006.035088 512c0 272.851088-221.175018 494.035088-494.035088 494.035088C239.157895 1006.035088 17.964912 784.851088 17.964912 512 17.964912 239.157895 239.157895 17.964912 512 17.964912 784.86007 17.964912 1006.035088 239.157895 1006.035088 512zM799.438596 474.507228C799.438596 336.464842 687.54414 224.561404 549.492772 224.561404l0 249.945825L799.438596 474.507228zM499.505404 249.559579C347.648 249.559579 224.561404 372.655158 224.561404 524.512561 224.561404 676.352 347.648 799.438596 499.505404 799.438596c71.141053 0 135.967439-27.019228 184.787088-71.347649L499.505404 524.512561 499.505404 249.559579zM791.596912 521.898667 543.663158 521.898667l166.633544 183.574456C760.230175 660.111719 791.596912 594.665544 791.596912 521.898667" p-id="2004"></path></svg>