<?xml version="1.0" standalone="no"?><!DOCTYPE svg PUBLIC "-//W3C//DTD SVG 1.1//EN" "http://www.w3.org/Graphics/SVG/1.1/DTD/svg11.dtd"><svg class="icon" width="200px" height="199.22px" viewBox="0 0 1028 1024" version="1.1" xmlns="http://www.w3.org/2000/svg"><path fill="#333333" d="M240.941176 943.345962C204.187438 918.84347 169.475573 890.257228 138.847458 857.587238 46.963111 757.535394 0 626.855434 6.125623 490.04985c6.125623-136.805583 65.33998-261.35992 165.391825-353.244267C267.485543 51.046859 387.956132 2.041874 516.594217 2.041874v20.418744c-122.512463 0-240.941176 44.921236-330.783649 128.638086C89.842473 238.899302 32.66999 359.36989 26.544367 490.04985 20.418744 622.771685 65.33998 747.326022 155.182453 843.294118c28.586241 32.66999 61.256231 59.214357 98.00997 81.674975l-12.251247 18.376869zM516.594217 1022.979063h-2.041874v-20.418744c124.554337 0 240.941176-44.921236 332.825523-128.638086C1047.481555 692.195414 1061.774676 381.830508 878.005982 181.72682c-28.586241-30.628116-61.256231-59.214357-98.00997-81.674976l10.209372-16.334995c36.753739 24.502493 71.465603 53.088734 102.093719 85.758724 189.894317 208.271186 175.601196 530.887338-32.66999 720.781655-93.926221 85.758724-214.39681 132.721834-343.034896 132.721835zM620.729811 920.885344L520.677966 1020.937188c-4.083749 4.083749-10.209372 4.083749-14.293121 0-4.083749-4.083749-4.083749-10.209372 0-14.29312l100.051845-98.00997c4.083749-4.083749 10.209372-4.083749 14.293121 0 4.083749 2.041874 4.083749 10.209372 0 12.251246zM524.761715 20.418744l-100.051845 98.00997c-4.083749 4.083749-10.209372 4.083749-14.29312 0-4.083749-4.083749-4.083749-10.209372 0-14.293121L510.468594 6.125623c4.083749-4.083749 10.209372-4.083749 14.293121 0 2.041874 4.083749 2.041874 10.209372 0 14.293121zM514.552343 747.326022c-67.381854 0-130.67996-26.544367-177.643071-73.507478-46.963111-46.963111-73.507478-110.261216-73.507477-177.64307 0-67.381854 26.544367-128.638086 73.507477-175.601197s110.261216-73.507478 175.601197-73.507477c136.805583 0 249.108674 112.303091 249.108674 251.150548 0 67.381854-26.544367 128.638086-73.507478 175.601196-44.921236 46.963111-106.177468 73.507478-173.559322 73.507478z m0-459.421735c-55.130608 0-108.219342 22.460618-147.014955 61.256231-38.795613 38.795613-61.256231 91.884347-61.256231 147.014956s22.460618 108.219342 61.256231 147.014955 91.884347 61.256231 147.014955 61.256231 108.219342-22.460618 147.014955-61.256231c38.795613-38.795613 61.256231-91.884347 61.256231-147.014955 2.041874-114.344965-91.884347-208.271186-208.271186-208.271187zM747.326022 777.954138c-6.125623 0-10.209372-2.041874-14.293121-6.125624L657.483549 694.237288c-8.167498-8.167498-8.167498-20.418744 0-28.586241 8.167498-8.167498 20.418744-8.167498 28.586242 0l75.549352 77.591226c8.167498 8.167498 8.167498 20.418744 0 28.586241-4.083749 4.083749-8.167498 6.125623-14.293121 6.125624zM571.724826 555.389831c-4.083749 0-10.209372-2.041874-12.251247-4.083749l-73.507477-63.298106-40.837488 49.004985c-4.083749 4.083749-10.209372 8.167498-16.334995 8.167498h-59.214357c-12.251246 0-20.418744-10.209372-20.418744-20.418744s8.167498-20.418744 20.418744-20.418744h51.04686l46.96311-57.172482c4.083749-4.083749 8.167498-6.125623 14.293121-8.167498 6.125623 0 10.209372 2.041874 14.293121 4.083749l75.549352 63.298105 10.209371-12.251246c4.083749-4.083749 8.167498-6.125623 14.293121-6.125623h65.33998c10.209372 0 20.418744 8.167498 20.418744 20.418744s-8.167498 20.418744-20.418744 20.418744h-57.172482l-18.37687 20.418743c-4.083749 4.083749-10.209372 6.125623-14.29312 6.125624z" /></svg>