<?xml version="1.0" standalone="no"?><!DOCTYPE svg PUBLIC "-//W3C//DTD SVG 1.1//EN" "http://www.w3.org/Graphics/SVG/1.1/DTD/svg11.dtd"><svg class="icon" width="200px" height="200.00px" viewBox="0 0 1024 1024" version="1.1" xmlns="http://www.w3.org/2000/svg"><path fill="#2c2c2c" d="M769.413 610.86h-0.019c-2.5 0.011-4.668 0.182-6.74 0.371l-117.418-117.42 84.242-84.246 60.434 0.002c10.446 0 20.266-5.57 25.63-14.538L923.75 214.006a29.779 29.779 0 0 0-4.517-36.439l-72.806-72.798a29.776 29.776 0 0 0-36.432-4.519L628.97 208.45c-8.952 5.367-14.522 15.185-14.536 25.63v60.441l-84.244 84.244-20.91-20.908a210.513 210.513 0 0 0 6.532-51.929c0.024-56.183-21.771-108.933-61.369-148.533-39.576-39.579-92.285-61.37-148.438-61.37h-0.1c-24.157 0-47.861 4.083-70.449 12.133-9.721 3.447-16.866 11.514-19.109 21.564-2.283 10.057 0.715 20.408 8.016 27.682l103.739 103.735-11.16 55.822-55.822 11.164-103.737-103.743c-7.279-7.306-17.629-10.303-27.673-8.024-10.067 2.248-18.134 9.396-21.576 19.112C100.083 258.067 96 281.769 96 305.915c-0.02 56.197 21.779 108.954 61.382 148.552 39.565 39.578 92.278 61.371 148.437 61.371h0.083c4.744 0 9.733-0.215 15.068-0.652L119.767 716.389c-15.13 15.118-23.79 36.085-23.762 57.516-0.028 21.441 8.636 42.408 23.769 57.522l72.792 72.805c15.099 15.107 36.025 23.766 57.419 23.765h0.203c21.403 0 42.328-8.658 57.421-23.762l222.582-222.583 81.018 81.023c-0.187 2.074-0.361 4.243-0.37 6.756 0.043 87.392 71.177 158.526 158.573 158.569 87.391-0.043 158.523-71.177 158.567-158.573-0.041-87.391-71.173-158.524-158.566-158.567zM551.401 442.016L665.416 328c5.613-5.643 8.716-13.135 8.738-21.107v-55.874l146.499-87.568 39.889 39.888-87.575 146.507h-55.872c-7.959 0.022-15.451 3.126-21.104 8.747L525.519 529.065l-30.579-30.58 56.346-56.349c0.06-0.06 0.118-0.121 0.115-0.12z m-179.804-93.824l18.199-91.012a29.803 29.803 0 0 0-8.167-26.974l-74.462-74.458c39.797 0.347 77.059 15.899 105.044 43.875 28.275 28.282 43.859 66.036 43.882 106.304 0 17.318-2.917 34.276-8.672 50.407-3.842 10.802-1.089 23.023 7.015 31.135L487.963 421l-39.298 39.299c-10.165-4.386-21.254-6.692-32.253-6.692h-0.206a81.023 81.023 0 0 0-25.485 4.119l-3.27-3.27c-8.111-8.102-20.333-10.854-31.137-7.012-16.146 5.755-33.108 8.673-50.41 8.674-40.269-0.021-78.017-15.603-106.29-43.878-27.988-27.992-43.543-65.255-43.886-105.053l74.463 74.467a29.836 29.836 0 0 0 26.97 8.167l91.008-18.202a29.73 29.73 0 0 0 23.428-23.427z m-209.601 410.43l236.89-236.89 3.108-2.052a29.791 29.791 0 0 0 5.21-4.385c2.82-1.293 5.881-1.954 9.085-1.967 5.918 0.023 11.207 2.188 15.236 6.2l72.877 72.878c4.082 4.09 6.251 9.384 6.274 15.275-0.015 3.232-0.677 6.297-1.972 9.121a29.832 29.832 0 0 0-4.382 5.208l-2.053 3.105-236.884 236.892c-4.087 4.078-9.381 6.245-15.277 6.27-5.927-0.022-11.221-2.191-15.308-6.27l-72.798-72.811c-4.082-4.089-6.253-9.38-6.277-15.268 0.024-5.929 2.194-11.222 6.271-15.306z m501.603-28.014l-97.324-97.327a80.962 80.962 0 0 0 4.118-25.577c0.014-11.043-2.293-22.17-6.69-32.366l39.301-39.3L730.58 663.615c6.566 6.586 15.986 9.755 25.21 8.468l0.483-0.069c5.938-0.848 10.226-1.48 13.13-1.432 54.41 0.1 98.757 44.447 98.856 98.842-0.099 54.406-44.442 98.75-98.849 98.856-54.404-0.104-98.748-44.449-98.851-98.884-0.025-2.943 0.607-7.346 1.484-13.438l0.018-0.131c1.291-9.218-1.874-18.648-8.462-25.219z" /></svg>