<?xml version="1.0" standalone="no"?><!DOCTYPE svg PUBLIC "-//W3C//DTD SVG 1.1//EN" "http://www.w3.org/Graphics/SVG/1.1/DTD/svg11.dtd"><svg t="1561704733332" class="icon" viewBox="0 0 1024 1024" version="1.1" xmlns="http://www.w3.org/2000/svg" p-id="6619" xmlns:xlink="http://www.w3.org/1999/xlink" width="200" height="200"><defs><style type="text/css"></style></defs><path d="M654.392034 765.979482c-0.163729-1.817392-0.514723-3.554966-1.051959-5.229095-19.455097-109.415992-97.739045-198.516286-201.01827-233.251392 41.529859-29.883611 68.718081-78.492702 68.718081-133.438105 0-90.682325-73.760934-164.451446-164.453493-164.451446-90.665952 0-164.436096 73.769121-164.436096 164.451446 0 54.945403 27.195386 103.553471 68.719104 133.429919C157.930939 562.116421 79.851653 650.740878 60.084447 759.657496c-0.997724 2.641153-1.614777 5.464455-1.614777 8.457626 0 13.220093 10.718109 23.945365 23.945365 23.945365l548.249599 0c13.227256 0 23.945365-10.725272 23.945365-23.945365l-0.10847-1.083681 0.10847 0L654.392034 765.979482zM240.041028 394.060891c0-64.273862 52.287877-116.560716 116.545366-116.560716 64.284095 0 116.562762 52.286854 116.562762 116.560716 0 64.259536-52.278667 116.54639-116.562762 116.54639C292.328905 510.60728 240.041028 458.320427 240.041028 394.060891zM112.394836 744.169757c30.281677-106.437148 128.177288-184.673 244.191558-184.673 116.025527 0 213.93444 78.236875 244.208954 184.673L112.394836 744.169757z" p-id="6620"></path><path d="M962.477808 740.365104c-8.885368-104.683201-78.772065-192.062294-174.015266-226.475058 34.060747-26.698059 56.065923-68.102051 56.065923-114.629737 0-80.347956-65.367777-145.713686-145.706523-145.713686-80.347956 0-145.714709 65.36573-145.714709 145.713686 0 46.535873 22.004153 87.940888 56.059783 114.629737-9.821693 3.553942-19.300578 7.794523-28.545126 12.432147 13.594623 10.772344 26.448372 22.417569 38.47529 34.882462 24.694425-9.82374 51.538817-15.372106 79.724763-15.372106 105.711624 0 193.706747 76.076676 212.833363 176.301332L712.563922 722.133881c4.54348 15.589047 8.191566 31.552623 10.764158 47.89073L939.296853 770.024611c13.220093 0 23.945365-10.726296 23.945365-23.945365C963.242218 744.099149 962.931133 742.203986 962.477808 740.365104zM698.821943 497.085312c-53.939493 0-97.823979-43.886533-97.823979-97.826026s43.884486-97.822956 97.823979-97.822956c53.93847 0 97.815793 43.883463 97.815793 97.822956S752.760412 497.085312 698.821943 497.085312z" p-id="6621"></path></svg>