<?xml version="1.0" standalone="no"?><!DOCTYPE svg PUBLIC "-//W3C//DTD SVG 1.1//EN" "http://www.w3.org/Graphics/SVG/1.1/DTD/svg11.dtd"><svg class="icon" width="200px" height="197.87px" viewBox="0 0 1035 1024" version="1.1" xmlns="http://www.w3.org/2000/svg"><path fill="#333333" d="M311.108 277.41H247.88c-15.112 0-27.445 12.332-27.445 27.445 0 13.028 9.032 24.145 21.713 26.924v0.695h69.309l5.732-0.173v-0.695c12.507-2.78 21.366-13.897 21.366-26.751 0-15.113-12.333-27.446-27.446-27.446zM484.294 277.41h-63.23c-15.112 0-27.445 12.332-27.445 27.445 0 13.028 9.033 24.145 21.713 26.924v0.695h69.31l5.732-0.173v-0.695c12.506-2.78 21.365-13.897 21.365-26.751 0.174-15.113-12.159-27.446-27.445-27.446zM311.108 430.097H247.88c-15.112 0-27.445 12.334-27.445 27.446 0 13.028 9.032 24.145 21.713 26.925v0.694h69.309l5.732-0.173v-0.695c12.507-2.78 21.366-13.897 21.366-26.751 0-15.112-12.333-27.446-27.446-27.446zM484.294 430.097h-63.23c-15.112 0-27.445 12.334-27.445 27.446 0 13.028 9.033 24.145 21.713 26.925v0.694h69.31l5.732-0.173v-0.695c12.506-2.78 21.365-13.897 21.365-26.751 0.174-15.112-12.159-27.446-27.445-27.446zM311.108 583.828H247.88c-15.112 0-27.445 12.333-27.445 27.445 0 13.028 9.032 24.145 21.713 26.925v0.695h69.309l5.732-0.174v-0.695c12.507-2.78 21.366-13.896 21.366-26.75 0-15.113-12.333-27.446-27.446-27.446zM484.294 583.828h-63.23c-15.112 0-27.445 12.333-27.445 27.445 0 13.028 9.033 24.145 21.713 26.925v0.695h69.31l5.732-0.174v-0.695c12.506-2.78 21.365-13.896 21.365-26.75 0.174-15.113-12.159-27.446-27.445-27.446zM796.444 622.217h-63.229c-15.112 0-27.445 12.333-27.445 27.445 0 13.028 9.032 24.146 21.713 26.925v0.695h69.309l5.732-0.174v-0.695c12.507-2.78 21.366-14.07 21.366-26.75 0-14.94-12.333-27.446-27.446-27.446zM796.444 753.192h-63.229c-15.112 0-27.445 12.333-27.445 27.445 0 13.028 9.032 24.145 21.713 26.925v0.694h69.309l5.732-0.173v-0.695c12.507-2.78 21.366-14.07 21.366-26.75 0-15.113-12.333-27.446-27.446-27.446zM991.343 931.588h-34.741v-386.67c0-65.14-27.62-92.934-92.238-92.934H654.005v-299.47c0-32.31-8.164-55.586-25.187-71.046-16.155-14.765-40.127-21.887-73.13-21.887h-382.85c-64.619 0-92.238 27.793-92.238 92.933v779.074H45.859c-15.113 0-27.446 12.333-27.446 27.446 0 15.112 12.333 27.445 27.446 27.445h945.484c15.113 0 27.446-12.333 27.446-27.445 0.174-15.113-12.16-27.446-27.446-27.446zM599.288 152.514v779.074H135.49V152.514c0-19.455 1.91-28.661 6.6-32.83 4.691-4.17 13.724-5.038 30.92-5.038h388.93c17.023 0 27.098 0.869 31.788 5.559 4.69 4.69 5.559 15.46 5.559 32.31z m297.906 360.268c4.343 4.863 4.69 15.807 4.69 31.962v386.67H654.005V507.05h210.359c20.323 0 28.835 1.39 32.83 5.733z" /></svg>