<?xml version="1.0" standalone="no"?><!DOCTYPE svg PUBLIC "-//W3C//DTD SVG 1.1//EN" "http://www.w3.org/Graphics/SVG/1.1/DTD/svg11.dtd"><svg t="1562665653121" class="icon" viewBox="0 0 1024 1024" version="1.1" xmlns="http://www.w3.org/2000/svg" p-id="7291" xmlns:xlink="http://www.w3.org/1999/xlink" width="200" height="200"><defs><style type="text/css"></style></defs><path d="M620.226172 986.240024H151.106466A155.519903 155.519903 0 0 1 0.06656 826.240124V768.00016a291.839818 291.839818 0 0 1 76.799952-200.959874 255.99984 255.99984 0 0 1 188.159882-84.479948h51.839968a47.99997 47.99997 0 0 1 35.199978 15.359991l83.839948 90.239943 84.479947-90.239943a48.63997 48.63997 0 0 1 35.199978-15.359991h92.159942a248.959844 248.959844 0 0 1 30.719981 7.039996 264.959834 264.959834 0 0 1 35.199978 13.439992h3.839998a36.479977 36.479977 0 1 1-32.63998 63.99996 181.759886 181.759886 0 0 0-24.959984-9.599994l-21.759987-5.119997H566.466206l-95.35994 102.399936a48.63997 48.63997 0 0 1-35.199978 15.35999 47.99997 47.99997 0 0 1-35.199978-15.35999L305.986369 555.520293h-40.959975a202.239874 202.239874 0 0 0-191.99988 210.559868v60.159963a82.559948 82.559948 0 0 0 77.439952 87.039945h469.119707a36.479977 36.479977 0 0 1 0 72.959955zM437.826286 74.240594a154.239904 154.239904 0 1 1-109.439931 45.439971 152.959904 152.959904 0 0 1 109.439931-45.439971m0-74.239954a227.199858 227.199858 0 1 0 227.839858 228.479857A227.199858 227.199858 0 0 0 437.826286 0.00064z m0 0" fill="#333333" p-id="7292"></path><path d="M768.06608 567.680285a199.039876 199.039876 0 1 1-140.799912 58.239964 197.759876 197.759876 0 0 1 140.799912-58.239964M768.06608 512.00032a255.99984 255.99984 0 1 0 255.99984 255.99984 255.99984 255.99984 0 0 0-255.99984-255.99984z m0 0" fill="#333333" p-id="7293"></path><path d="M730.306104 640.00024a540.159662 540.159662 0 0 1-26.239984 63.99996v208.63987h-42.239974V768.00016l-12.799992 14.719991a291.199818 291.199818 0 0 0-22.399986-45.439972 303.35981 303.35981 0 0 0 63.99996-108.159932z m72.959954 199.039876a255.99984 255.99984 0 0 1-63.99996 69.119956 248.319845 248.319845 0 0 0-33.919979-26.879983 167.679895 167.679895 0 0 0 54.399966-54.399966z m108.159932-63.99996v42.239973h-191.99988v-42.239973h37.119977v-51.199968h-29.439981v-39.039976h29.439981v-53.759966h42.239974v53.119966H832.06604v-53.759966h42.239974v53.759966h36.479977v40.959975h-36.479977v51.199968z m-115.199928 0H832.06604v-51.199968h-34.559978z m63.99996 50.559968a362.239774 362.239774 0 0 1 49.27997 60.159962l-36.479978 23.039986a345.599784 345.599784 0 0 0-47.35997-63.99996z m0 0" fill="#333333" p-id="7294"></path></svg>