<?xml version="1.0" standalone="no"?><!DOCTYPE svg PUBLIC "-//W3C//DTD SVG 1.1//EN" "http://www.w3.org/Graphics/SVG/1.1/DTD/svg11.dtd"><svg class="icon" width="200px" height="200.00px" viewBox="0 0 1024 1024" version="1.1" xmlns="http://www.w3.org/2000/svg"><path fill="#333333" d="M658.286 585.143H365.714v146.286h292.572V585.143z m73.143 0v146.286h219.428V585.143H731.43z m-73.143 365.714V804.571H365.714v146.286h292.572z m73.143 0h182.857c20.198 0 36.571-16.373 36.571-36.571V804.57H731.43v146.286z m-73.143-585.143H365.714V512h292.572V365.714z m73.143 0V512h219.428V365.714H731.43z m0-73.143h219.428V109.714c0-20.198-16.373-36.571-36.571-36.571H109.714c-20.198 0-36.571 16.373-36.571 36.571v182.857H731.429zM292.57 585.143H73.143v146.286H292.57V585.143z m0 365.714V804.571H73.143v109.715c0 20.198 16.373 36.571 36.571 36.571h182.857z m0-585.143H73.143V512H292.57V365.714zM109.714 0h804.572C974.879 0 1024 49.12 1024 109.714v804.572C1024 974.879 974.88 1024 914.286 1024H109.714C49.121 1024 0 974.88 0 914.286V109.714C0 49.121 49.12 0 109.714 0z" /></svg>